<?xml version="1.0" encoding="UTF-8"?>
<svg version="1.1" xmlns="http://www.w3.org/2000/svg" width="225" height="225">
<path d="M0 0 C74.25 0 148.5 0 225 0 C225 74.25 225 148.5 225 225 C150.75 225 76.5 225 0 225 C0 150.75 0 76.5 0 0 Z " fill="#FCFCFC" transform="translate(0,0)"/>
<path d="M0 0 C74.25 0 148.5 0 225 0 C225 74.25 225 148.5 225 225 C150.75 225 76.5 225 0 225 C0 150.75 0 76.5 0 0 Z M43 18 C40.57889167 21.55707363 40.71388846 25.15815056 40.73257446 29.31210327 C40.72804335 30.05041055 40.72351224 30.78871783 40.71884382 31.54939806 C40.70617936 34.02436929 40.70782149 36.49912104 40.70947266 38.97412109 C40.70348869 40.74820743 40.69668345 42.52229116 40.68911743 44.29637146 C40.67143706 49.11664557 40.6667612 53.93684868 40.66548586 58.75715208 C40.66358726 62.78054131 40.65623019 66.80391399 40.64914167 70.82729685 C40.63285246 80.31944341 40.62797321 89.81155202 40.62939453 99.30371094 C40.6305962 109.09672891 40.60949045 118.88952658 40.5779072 128.6824888 C40.55175987 137.08939825 40.54102658 145.49623568 40.54230535 153.90318549 C40.54281543 158.9246753 40.537107 163.94596935 40.51594925 168.96741867 C40.4965928 173.69035769 40.49642461 178.41291368 40.51098251 183.13586617 C40.51307492 184.86846666 40.50834404 186.60109096 40.4962616 188.33365059 C40.48082354 190.70086074 40.4901065 193.06674777 40.50552368 195.43392944 C40.49523656 196.11798556 40.48494943 196.80204167 40.47435057 197.50682676 C40.5448595 202.41288134 41.94090888 205.21703672 45 209 C47.54271661 210.2713583 49.33247923 210.13733134 52.18013 210.15390015 C53.82679657 210.16680084 53.82679657 210.16680084 55.50672913 210.17996216 C56.7166301 210.18422211 57.92653107 210.18848206 59.1730957 210.19287109 C60.44307404 210.20104858 61.71305237 210.20922607 63.02151489 210.21765137 C67.23958208 210.24387418 71.4576592 210.25917903 75.67578125 210.2734375 C77.12748916 210.27879703 78.579197 210.28417454 80.03090477 210.28956985 C86.0692741 210.31119877 92.10764074 210.32993577 98.14603901 210.34119225 C106.80176521 210.3574336 115.45704266 210.39061508 124.11259967 210.44759309 C130.19759356 210.48628479 136.28246739 210.50582397 142.36758107 210.51111281 C146.00252939 210.51476736 149.63699912 210.52679828 153.27181435 210.55921555 C157.32772157 210.59486977 161.38266361 210.59092741 165.4387207 210.58349609 C166.64254898 210.59990143 167.84637726 210.61630676 169.08668518 210.63320923 C173.75643262 210.59809451 177.06822991 210.48187205 181.24960327 208.31944275 C184.13183056 202.85360273 183.650481 197.38558382 183.56762695 191.30541992 C183.56621589 189.89583385 183.5670096 188.4862441 183.56983948 187.07666016 C183.57127282 183.25650707 183.54189738 179.43714054 183.50696969 175.6171701 C183.47569199 171.62269448 183.47277435 167.6282004 183.46684265 163.63362122 C183.45130829 156.07230499 183.41028558 148.51135065 183.3600952 140.9501937 C183.30418887 132.34086107 183.27671203 123.73151106 183.25161803 115.12204206 C183.19936918 97.41448961 183.11143503 79.70727391 183 62 C181.93563721 61.98541748 180.87127441 61.97083496 179.7746582 61.95581055 C175.81403531 61.8977022 171.85397352 61.82047055 167.89379883 61.73754883 C166.18197762 61.70435831 164.47004852 61.67630811 162.75805664 61.65356445 C160.29266521 61.61990968 157.82825719 61.56759026 155.36328125 61.51171875 C154.60163162 61.50532883 153.83998199 61.4989389 153.05525208 61.49235535 C148.49520542 61.36705535 145.72915938 60.60404545 142 58 C141.34 58 140.68 58 140 58 C137.7382718 52.42107044 136.81365647 47.83980012 136.68359375 41.83203125 C136.66281265 41.03721848 136.64203156 40.2424057 136.62062073 39.42350769 C136.55527913 36.88659237 136.49631192 34.34957427 136.4375 31.8125 C136.39430014 30.09178628 136.35068537 28.37108292 136.30664062 26.65039062 C136.19961352 22.43369887 136.09830276 18.2169038 136 14 C124.76030413 13.90726896 113.52069946 13.83621907 102.28069878 13.79275131 C97.0613439 13.77188761 91.84225099 13.74359193 86.62304688 13.69824219 C81.58503778 13.65474141 76.54728048 13.63085374 71.50909805 13.62049103 C69.58816693 13.61310729 67.6672494 13.59868848 65.74642563 13.57707977 C63.05314235 13.54798952 60.36089589 13.54404634 57.66748047 13.54589844 C56.87553787 13.53151733 56.08359528 13.51713623 55.26765442 13.50231934 C50.08169077 13.54083971 47.06802314 14.50150683 43 18 Z " fill="#020202" transform="translate(0,0)"/>
<path d="M0 0 C27.39 0 54.78 0 83 0 C83 74.25 83 148.5 83 225 C67.49 225 51.98 225 36 225 C37.98 224.01 37.98 224.01 40 223 C46.3014472 219.54234706 51.44643139 216.15425605 54.06407166 209.15466309 C55.598008 203.36840056 55.73287368 197.34874359 56.09985352 191.40039062 C56.14300658 190.72686979 56.18615965 190.05334895 56.23062038 189.35941839 C57.41773961 170.75613461 58.09874688 152.13403564 58.5625 133.5 C58.5848811 132.6427577 58.60726219 131.7855154 58.6303215 130.90229607 C61.59264468 76.78016862 61.59264468 76.78016862 39.09608459 29.73120117 C28.46643741 18.63402076 15.58773685 9.46531213 2.0880127 2.20562744 C1.39896851 1.80777039 0.70992432 1.40991333 0 1 C0 0.67 0 0.34 0 0 Z " fill="#FEFEFE" transform="translate(142,0)"/>
<path d="M0 0 C15.51 0 31.02 0 47 0 C44.54166667 1.22916667 42.08333333 2.45833333 39.625 3.6875 C33.92115872 6.97487519 30.04444451 11.76159618 28 18 C27.81268816 20.58606477 27.72550104 23.06249204 27.73930359 25.64668274 C27.73547804 26.40893463 27.73165249 27.17118652 27.72771102 27.95653695 C27.71740545 30.50665826 27.72136853 33.05655338 27.7253418 35.60668945 C27.72099391 37.43679004 27.71581051 39.2668888 27.70985413 41.09698486 C27.69645961 46.06609622 27.69588608 51.03513154 27.69841743 56.00425744 C27.69948705 60.15425866 27.69460386 64.30424449 27.689812 68.45424241 C27.67871477 78.24709453 27.67828032 88.0399083 27.68432617 97.83276367 C27.69036399 107.92962502 27.6780603 118.02634694 27.6567561 128.1231845 C27.63913064 136.79595906 27.63314033 145.46868929 27.63639385 154.1414811 C27.63820569 159.31947538 27.63558052 164.49737025 27.62167931 169.67534828 C27.60909064 174.54681743 27.61105497 179.41806965 27.62409019 184.28953552 C27.62645344 186.07450624 27.62373034 187.85949227 27.61546707 189.64444542 C27.60497612 192.0873358 27.61311875 194.52950146 27.6257782 196.97236633 C27.61840391 197.67326033 27.61102963 198.37415434 27.60343188 199.09628755 C27.68526678 206.63915559 30.1843742 212.89391443 35.23828125 218.45703125 C38.19540043 221.04696934 41.40245254 222.44933299 45 224 C45 224.33 45 224.66 45 225 C30.15 225 15.3 225 0 225 C0 150.75 0 76.5 0 0 Z " fill="#FEFEFE" transform="translate(0,0)"/>
<path d="M0 0 C1.01449219 -0.00386719 2.02898437 -0.00773437 3.07421875 -0.01171875 C4.13253906 -0.00011719 5.19085938 0.01148437 6.28125 0.0234375 C7.33957031 0.01183594 8.39789063 0.00023438 9.48828125 -0.01171875 C10.50277344 -0.00785156 11.51726562 -0.00398438 12.5625 0 C13.49126953 0.00338379 14.42003906 0.00676758 15.37695312 0.01025391 C17.78125 0.3984375 17.78125 0.3984375 19.58911133 1.39916992 C21.52860201 4.65177881 21.14589062 8.11059181 21.07421875 11.78515625 C21.06997391 12.60216507 21.06572906 13.41917389 21.06135559 14.26094055 C21.04456691 16.86960857 21.00691519 19.47750312 20.96875 22.0859375 C20.95370337 23.85480655 20.94001492 25.62368771 20.92773438 27.39257812 C20.89466286 31.72816246 20.8428799 36.06316886 20.78125 40.3984375 C21.76867187 40.37523437 22.75609375 40.35203125 23.7734375 40.328125 C25.05476563 40.31007812 26.33609375 40.29203125 27.65625 40.2734375 C28.93242187 40.25023437 30.20859375 40.22703125 31.5234375 40.203125 C34.78125 40.3984375 34.78125 40.3984375 36.78125 42.3984375 C37.27807617 44.61010742 37.27807617 44.61010742 36.78125 47.3984375 C35.06576191 49.86722565 32.97124913 51.90878113 30.83203125 54.01171875 C30.22240036 54.62613327 29.61276947 55.24054779 28.98466492 55.87358093 C27.69359279 57.16805249 26.3961969 58.45624324 25.09301758 59.73852539 C23.10079685 61.70398531 21.13663058 63.69466317 19.17382812 65.68945312 C17.91566254 66.94431463 16.65594677 68.1976242 15.39453125 69.44921875 C14.80787186 70.0459993 14.22121246 70.64277985 13.61677551 71.25764465 C11.22431475 73.58279576 9.50761138 75.18237336 6.28125 76.14208984 C2.3303898 74.96686326 0.01357997 72.34392298 -2.83203125 69.44921875 C-3.44644577 68.83958786 -4.06086029 68.22995697 -4.69389343 67.60185242 C-5.98836499 66.31078029 -7.27655574 65.0133844 -8.55883789 63.71020508 C-10.52429781 61.71798435 -12.51497567 59.75381808 -14.50976562 57.79101562 C-15.76462713 56.53285004 -17.0179367 55.27313427 -18.26953125 54.01171875 C-19.16470207 53.13172966 -19.16470207 53.13172966 -20.07795715 52.23396301 C-24.09332546 48.10235577 -24.09332546 48.10235577 -24.71557617 44.61010742 C-24.21875 42.3984375 -24.21875 42.3984375 -22.21875 40.3984375 C-18.9609375 40.203125 -18.9609375 40.203125 -15.09375 40.2734375 C-13.17175781 40.30050781 -13.17175781 40.30050781 -11.2109375 40.328125 C-10.22351563 40.35132813 -9.23609375 40.37453125 -8.21875 40.3984375 C-8.23446045 39.29330811 -8.2501709 38.18817871 -8.26635742 37.04956055 C-8.32063557 32.95149009 -8.35509224 28.85345143 -8.38354492 24.75512695 C-8.39863641 22.98098407 -8.41911191 21.20687852 -8.44506836 19.43286133 C-8.48143641 16.88353263 -8.49847238 14.33469691 -8.51171875 11.78515625 C-8.52720261 10.99131027 -8.54268646 10.19746429 -8.55863953 9.37956238 C-8.56029439 3.97122205 -8.56029439 3.97122205 -7.02661133 1.39916992 C-4.58607923 0.04822582 -2.78636247 0.01015156 0 0 Z " fill="#000000" transform="translate(106.21875,74.6015625)"/>
</svg>
